<?xml version="1.0" encoding="utf-8" standalone="no"?>
<!DOCTYPE svg PUBLIC "-//W3C//DTD SVG 1.1//EN"
  "http://www.w3.org/Graphics/SVG/1.1/DTD/svg11.dtd">
<!-- Created with matplotlib (https://matplotlib.org/) -->
<svg height="345.6pt" version="1.1" viewBox="0 0 460.8 345.6" width="460.8pt" xmlns="http://www.w3.org/2000/svg" xmlns:xlink="http://www.w3.org/1999/xlink">
 <metadata>
  <rdf:RDF xmlns:cc="http://creativecommons.org/ns#" xmlns:dc="http://purl.org/dc/elements/1.1/" xmlns:rdf="http://www.w3.org/1999/02/22-rdf-syntax-ns#">
   <cc:Work>
    <dc:type rdf:resource="http://purl.org/dc/dcmitype/StillImage"/>
    <dc:date>2023-09-17T12:04:44.624236</dc:date>
    <dc:format>image/svg+xml</dc:format>
    <dc:creator>
     <cc:Agent>
      <dc:title>Matplotlib v3.3.4, https://matplotlib.org/</dc:title>
     </cc:Agent>
    </dc:creator>
   </cc:Work>
  </rdf:RDF>
 </metadata>
 <defs>
  <style type="text/css">*{stroke-linecap:butt;stroke-linejoin:round;}</style>
 </defs>
 <g id="figure_1">
  <g id="patch_1">
   <path d="M 0 345.6 
L 460.8 345.6 
L 460.8 0 
L 0 0 
z
" style="fill:#ffffff;"/>
  </g>
  <g id="axes_1">
   <g id="patch_2">
    <path d="M 57.6 307.584 
L 414.72 307.584 
L 414.72 41.472 
L 57.6 41.472 
z
" style="fill:#ffffff;"/>
   </g>
   <g id="PathCollection_1">
    <defs>
     <path d="M 0 3 
C 0.795609 3 1.55874 2.683901 2.12132 2.12132 
C 2.683901 1.55874 3 0.795609 3 0 
C 3 -0.795609 2.683901 -1.55874 2.12132 -2.12132 
C 1.55874 -2.683901 0.795609 -3 0 -3 
C -0.795609 -3 -1.55874 -2.683901 -2.12132 -2.12132 
C -2.683901 -1.55874 -3 -0.795609 -3 0 
C -3 0.795609 -2.683901 1.55874 -2.12132 2.12132 
C -1.55874 2.683901 -0.795609 3 0 3 
z
" id="m032a10d1eb" style="stroke:#1f77b4;"/>
    </defs>
    <g clip-path="url(#p19a479c395)">
     <use style="fill:#1f77b4;stroke:#1f77b4;" x="290.487365" xlink:href="#m032a10d1eb" y="282.917263"/>
     <use style="fill:#1f77b4;stroke:#1f77b4;" x="235.347877" xlink:href="#m032a10d1eb" y="263.981593"/>
     <use style="fill:#1f77b4;stroke:#1f77b4;" x="90.226899" xlink:href="#m032a10d1eb" y="183.77858"/>
     <use style="fill:#1f77b4;stroke:#1f77b4;" x="253.369157" xlink:href="#m032a10d1eb" y="290.81761"/>
     <use style="fill:#1f77b4;stroke:#1f77b4;" x="131.914093" xlink:href="#m032a10d1eb" y="295.488"/>
     <use style="fill:#1f77b4;stroke:#1f77b4;" x="123.966352" xlink:href="#m032a10d1eb" y="143.515304"/>
     <use style="fill:#1f77b4;stroke:#1f77b4;" x="309.705269" xlink:href="#m032a10d1eb" y="115.508896"/>
     <use style="fill:#1f77b4;stroke:#1f77b4;" x="267.907035" xlink:href="#m032a10d1eb" y="90.081283"/>
     <use style="fill:#1f77b4;stroke:#1f77b4;" x="307.029041" xlink:href="#m032a10d1eb" y="124.077995"/>
     <use style="fill:#1f77b4;stroke:#1f77b4;" x="231.030052" xlink:href="#m032a10d1eb" y="175.269952"/>
     <use style="fill:#1f77b4;stroke:#1f77b4;" x="222.63137" xlink:href="#m032a10d1eb" y="172.506611"/>
     <use style="fill:#1f77b4;stroke:#1f77b4;" x="190.209366" xlink:href="#m032a10d1eb" y="218.379602"/>
     <use style="fill:#1f77b4;stroke:#1f77b4;" x="93.637962" xlink:href="#m032a10d1eb" y="262.609633"/>
     <use style="fill:#1f77b4;stroke:#1f77b4;" x="131.163083" xlink:href="#m032a10d1eb" y="131.108757"/>
     <use style="fill:#1f77b4;stroke:#1f77b4;" x="271.872102" xlink:href="#m032a10d1eb" y="282.160294"/>
     <use style="fill:#1f77b4;stroke:#1f77b4;" x="185.406228" xlink:href="#m032a10d1eb" y="165.252259"/>
     <use style="fill:#1f77b4;stroke:#1f77b4;" x="168.650213" xlink:href="#m032a10d1eb" y="77.608184"/>
     <use style="fill:#1f77b4;stroke:#1f77b4;" x="312.908492" xlink:href="#m032a10d1eb" y="266.884753"/>
     <use style="fill:#1f77b4;stroke:#1f77b4;" x="263.065964" xlink:href="#m032a10d1eb" y="91.147846"/>
     <use style="fill:#1f77b4;stroke:#1f77b4;" x="312.272971" xlink:href="#m032a10d1eb" y="159.114184"/>
     <use style="fill:#1f77b4;stroke:#1f77b4;" x="216.633816" xlink:href="#m032a10d1eb" y="174.207054"/>
     <use style="fill:#1f77b4;stroke:#1f77b4;" x="331.081991" xlink:href="#m032a10d1eb" y="172.076753"/>
     <use style="fill:#1f77b4;stroke:#1f77b4;" x="200.577917" xlink:href="#m032a10d1eb" y="123.239102"/>
     <use style="fill:#1f77b4;stroke:#1f77b4;" x="89.673416" xlink:href="#m032a10d1eb" y="243.17638"/>
     <use style="fill:#1f77b4;stroke:#1f77b4;" x="205.717981" xlink:href="#m032a10d1eb" y="81.826589"/>
     <use style="fill:#1f77b4;stroke:#1f77b4;" x="152.49413" xlink:href="#m032a10d1eb" y="258.833174"/>
     <use style="fill:#1f77b4;stroke:#1f77b4;" x="271.269947" xlink:href="#m032a10d1eb" y="219.328677"/>
     <use style="fill:#1f77b4;stroke:#1f77b4;" x="259.301773" xlink:href="#m032a10d1eb" y="118.99601"/>
     <use style="fill:#1f77b4;stroke:#1f77b4;" x="98.079869" xlink:href="#m032a10d1eb" y="126.249648"/>
     <use style="fill:#1f77b4;stroke:#1f77b4;" x="305.082971" xlink:href="#m032a10d1eb" y="121.484786"/>
     <use style="fill:#1f77b4;stroke:#1f77b4;" x="210.1687" xlink:href="#m032a10d1eb" y="98.887292"/>
     <use style="fill:#1f77b4;stroke:#1f77b4;" x="192.818566" xlink:href="#m032a10d1eb" y="266.168258"/>
     <use style="fill:#1f77b4;stroke:#1f77b4;" x="313.556547" xlink:href="#m032a10d1eb" y="191.921829"/>
     <use style="fill:#1f77b4;stroke:#1f77b4;" x="304.735586" xlink:href="#m032a10d1eb" y="79.770039"/>
     <use style="fill:#1f77b4;stroke:#1f77b4;" x="202.241891" xlink:href="#m032a10d1eb" y="292.042255"/>
     <use style="fill:#1f77b4;stroke:#1f77b4;" x="122.885199" xlink:href="#m032a10d1eb" y="226.958485"/>
     <use style="fill:#1f77b4;stroke:#1f77b4;" x="346.716315" xlink:href="#m032a10d1eb" y="226.752078"/>
     <use style="fill:#1f77b4;stroke:#1f77b4;" x="186.80035" xlink:href="#m032a10d1eb" y="84.665463"/>
     <use style="fill:#1f77b4;stroke:#1f77b4;" x="270.602732" xlink:href="#m032a10d1eb" y="116.281158"/>
     <use style="fill:#1f77b4;stroke:#1f77b4;" x="280.743244" xlink:href="#m032a10d1eb" y="172.410054"/>
     <use style="fill:#1f77b4;stroke:#1f77b4;" x="110.91322" xlink:href="#m032a10d1eb" y="57.143197"/>
     <use style="fill:#1f77b4;stroke:#1f77b4;" x="258.78775" xlink:href="#m032a10d1eb" y="282.724284"/>
     <use style="fill:#1f77b4;stroke:#1f77b4;" x="313.956049" xlink:href="#m032a10d1eb" y="135.851916"/>
     <use style="fill:#1f77b4;stroke:#1f77b4;" x="254.708837" xlink:href="#m032a10d1eb" y="252.351983"/>
     <use style="fill:#1f77b4;stroke:#1f77b4;" x="106.454924" xlink:href="#m032a10d1eb" y="114.948581"/>
     <use style="fill:#1f77b4;stroke:#1f77b4;" x="83.900251" xlink:href="#m032a10d1eb" y="127.093455"/>
     <use style="fill:#1f77b4;stroke:#1f77b4;" x="208.662813" xlink:href="#m032a10d1eb" y="243.509257"/>
     <use style="fill:#1f77b4;stroke:#1f77b4;" x="372.85089" xlink:href="#m032a10d1eb" y="241.871447"/>
     <use style="fill:#1f77b4;stroke:#1f77b4;" x="298.57103" xlink:href="#m032a10d1eb" y="260.325597"/>
     <use style="fill:#1f77b4;stroke:#1f77b4;" x="202.660379" xlink:href="#m032a10d1eb" y="105.929645"/>
     <use style="fill:#1f77b4;stroke:#1f77b4;" x="231.225119" xlink:href="#m032a10d1eb" y="66.267573"/>
     <use style="fill:#1f77b4;stroke:#1f77b4;" x="84.811184" xlink:href="#m032a10d1eb" y="125.040184"/>
     <use style="fill:#1f77b4;stroke:#1f77b4;" x="389.875132" xlink:href="#m032a10d1eb" y="114.322827"/>
     <use style="fill:#1f77b4;stroke:#1f77b4;" x="112.710351" xlink:href="#m032a10d1eb" y="173.219985"/>
     <use style="fill:#1f77b4;stroke:#1f77b4;" x="142.68712" xlink:href="#m032a10d1eb" y="74.424176"/>
     <use style="fill:#1f77b4;stroke:#1f77b4;" x="212.92298" xlink:href="#m032a10d1eb" y="256.677662"/>
     <use style="fill:#1f77b4;stroke:#1f77b4;" x="350.376445" xlink:href="#m032a10d1eb" y="284.152601"/>
     <use style="fill:#1f77b4;stroke:#1f77b4;" x="214.665253" xlink:href="#m032a10d1eb" y="158.327706"/>
     <use style="fill:#1f77b4;stroke:#1f77b4;" x="147.114626" xlink:href="#m032a10d1eb" y="244.291538"/>
     <use style="fill:#1f77b4;stroke:#1f77b4;" x="383.375156" xlink:href="#m032a10d1eb" y="234.935034"/>
     <use style="fill:#1f77b4;stroke:#1f77b4;" x="240.928576" xlink:href="#m032a10d1eb" y="204.197189"/>
     <use style="fill:#1f77b4;stroke:#1f77b4;" x="304.002854" xlink:href="#m032a10d1eb" y="62.857286"/>
     <use style="fill:#1f77b4;stroke:#1f77b4;" x="146.794583" xlink:href="#m032a10d1eb" y="269.706323"/>
     <use style="fill:#1f77b4;stroke:#1f77b4;" x="267.38722" xlink:href="#m032a10d1eb" y="241.417264"/>
     <use style="fill:#1f77b4;stroke:#1f77b4;" x="125.187109" xlink:href="#m032a10d1eb" y="221.233342"/>
     <use style="fill:#1f77b4;stroke:#1f77b4;" x="350.621573" xlink:href="#m032a10d1eb" y="185.963448"/>
     <use style="fill:#1f77b4;stroke:#1f77b4;" x="346.652573" xlink:href="#m032a10d1eb" y="140.453613"/>
     <use style="fill:#1f77b4;stroke:#1f77b4;" x="201.751368" xlink:href="#m032a10d1eb" y="242.95439"/>
     <use style="fill:#1f77b4;stroke:#1f77b4;" x="355.51564" xlink:href="#m032a10d1eb" y="198.85725"/>
     <use style="fill:#1f77b4;stroke:#1f77b4;" x="186.895018" xlink:href="#m032a10d1eb" y="150.096737"/>
     <use style="fill:#1f77b4;stroke:#1f77b4;" x="88.332492" xlink:href="#m032a10d1eb" y="274.765286"/>
     <use style="fill:#1f77b4;stroke:#1f77b4;" x="376.960123" xlink:href="#m032a10d1eb" y="255.630779"/>
     <use style="fill:#1f77b4;stroke:#1f77b4;" x="157.259973" xlink:href="#m032a10d1eb" y="131.791153"/>
     <use style="fill:#1f77b4;stroke:#1f77b4;" x="192.012331" xlink:href="#m032a10d1eb" y="177.839414"/>
     <use style="fill:#1f77b4;stroke:#1f77b4;" x="169.978481" xlink:href="#m032a10d1eb" y="129.394914"/>
     <use style="fill:#1f77b4;stroke:#1f77b4;" x="158.111337" xlink:href="#m032a10d1eb" y="177.630432"/>
     <use style="fill:#1f77b4;stroke:#1f77b4;" x="212.05444" xlink:href="#m032a10d1eb" y="200.849529"/>
     <use style="fill:#1f77b4;stroke:#1f77b4;" x="160.142308" xlink:href="#m032a10d1eb" y="168.049617"/>
     <use style="fill:#1f77b4;stroke:#1f77b4;" x="288.55617" xlink:href="#m032a10d1eb" y="206.574743"/>
     <use style="fill:#1f77b4;stroke:#1f77b4;" x="81.674156" xlink:href="#m032a10d1eb" y="150.040263"/>
     <use style="fill:#1f77b4;stroke:#1f77b4;" x="369.26799" xlink:href="#m032a10d1eb" y="113.286039"/>
     <use style="fill:#1f77b4;stroke:#1f77b4;" x="133.143805" xlink:href="#m032a10d1eb" y="189.546722"/>
     <use style="fill:#1f77b4;stroke:#1f77b4;" x="242.90504" xlink:href="#m032a10d1eb" y="221.874367"/>
     <use style="fill:#1f77b4;stroke:#1f77b4;" x="170.74119" xlink:href="#m032a10d1eb" y="90.004919"/>
     <use style="fill:#1f77b4;stroke:#1f77b4;" x="350.468705" xlink:href="#m032a10d1eb" y="294.974161"/>
     <use style="fill:#1f77b4;stroke:#1f77b4;" x="221.722545" xlink:href="#m032a10d1eb" y="188.713124"/>
     <use style="fill:#1f77b4;stroke:#1f77b4;" x="305.322767" xlink:href="#m032a10d1eb" y="215.583844"/>
     <use style="fill:#1f77b4;stroke:#1f77b4;" x="297.861489" xlink:href="#m032a10d1eb" y="109.834933"/>
     <use style="fill:#1f77b4;stroke:#1f77b4;" x="336.45997" xlink:href="#m032a10d1eb" y="204.591777"/>
     <use style="fill:#1f77b4;stroke:#1f77b4;" x="232.25359" xlink:href="#m032a10d1eb" y="233.187579"/>
     <use style="fill:#1f77b4;stroke:#1f77b4;" x="139.900429" xlink:href="#m032a10d1eb" y="265.415846"/>
     <use style="fill:#1f77b4;stroke:#1f77b4;" x="391.052866" xlink:href="#m032a10d1eb" y="136.578907"/>
     <use style="fill:#1f77b4;stroke:#1f77b4;" x="73.832727" xlink:href="#m032a10d1eb" y="93.540211"/>
     <use style="fill:#1f77b4;stroke:#1f77b4;" x="159.292304" xlink:href="#m032a10d1eb" y="68.324854"/>
     <use style="fill:#1f77b4;stroke:#1f77b4;" x="352.335552" xlink:href="#m032a10d1eb" y="130.156685"/>
     <use style="fill:#1f77b4;stroke:#1f77b4;" x="330.878099" xlink:href="#m032a10d1eb" y="56.65798"/>
     <use style="fill:#1f77b4;stroke:#1f77b4;" x="325.719951" xlink:href="#m032a10d1eb" y="260.92175"/>
     <use style="fill:#1f77b4;stroke:#1f77b4;" x="358.649896" xlink:href="#m032a10d1eb" y="150.334172"/>
     <use style="fill:#1f77b4;stroke:#1f77b4;" x="398.487273" xlink:href="#m032a10d1eb" y="53.568"/>
     <use style="fill:#1f77b4;stroke:#1f77b4;" x="325.3396" xlink:href="#m032a10d1eb" y="255.184985"/>
    </g>
   </g>
   <g id="matplotlib.axis_1">
    <g id="xtick_1">
     <g id="line2d_1">
      <defs>
       <path d="M 0 0 
L 0 3.5 
" id="mcbccce9ef9" style="stroke:#000000;stroke-width:0.8;"/>
      </defs>
      <g>
       <use style="stroke:#000000;stroke-width:0.8;" x="73.602981" xlink:href="#mcbccce9ef9" y="307.584"/>
      </g>
     </g>
     <g id="text_1">
      <!-- 0.0 -->
      <g transform="translate(65.651419 322.182437)scale(0.1 -0.1)">
       <defs>
        <path d="M 31.78125 66.40625 
Q 24.171875 66.40625 20.328125 58.90625 
Q 16.5 51.421875 16.5 36.375 
Q 16.5 21.390625 20.328125 13.890625 
Q 24.171875 6.390625 31.78125 6.390625 
Q 39.453125 6.390625 43.28125 13.890625 
Q 47.125 21.390625 47.125 36.375 
Q 47.125 51.421875 43.28125 58.90625 
Q 39.453125 66.40625 31.78125 66.40625 
z
M 31.78125 74.21875 
Q 44.046875 74.21875 50.515625 64.515625 
Q 56.984375 54.828125 56.984375 36.375 
Q 56.984375 17.96875 50.515625 8.265625 
Q 44.046875 -1.421875 31.78125 -1.421875 
Q 19.53125 -1.421875 13.0625 8.265625 
Q 6.59375 17.96875 6.59375 36.375 
Q 6.59375 54.828125 13.0625 64.515625 
Q 19.53125 74.21875 31.78125 74.21875 
z
" id="DejaVuSans-48"/>
        <path d="M 10.6875 12.40625 
L 21 12.40625 
L 21 0 
L 10.6875 0 
z
" id="DejaVuSans-46"/>
       </defs>
       <use xlink:href="#DejaVuSans-48"/>
       <use x="63.623047" xlink:href="#DejaVuSans-46"/>
       <use x="95.410156" xlink:href="#DejaVuSans-48"/>
      </g>
     </g>
    </g>
    <g id="xtick_2">
     <g id="line2d_2">
      <g>
       <use style="stroke:#000000;stroke-width:0.8;" x="139.37173" xlink:href="#mcbccce9ef9" y="307.584"/>
      </g>
     </g>
     <g id="text_2">
      <!-- 0.2 -->
      <g transform="translate(131.420168 322.182437)scale(0.1 -0.1)">
       <defs>
        <path d="M 19.1875 8.296875 
L 53.609375 8.296875 
L 53.609375 0 
L 7.328125 0 
L 7.328125 8.296875 
Q 12.9375 14.109375 22.625 23.890625 
Q 32.328125 33.6875 34.8125 36.53125 
Q 39.546875 41.84375 41.421875 45.53125 
Q 43.3125 49.21875 43.3125 52.78125 
Q 43.3125 58.59375 39.234375 62.25 
Q 35.15625 65.921875 28.609375 65.921875 
Q 23.96875 65.921875 18.8125 64.3125 
Q 13.671875 62.703125 7.8125 59.421875 
L 7.8125 69.390625 
Q 13.765625 71.78125 18.9375 73 
Q 24.125 74.21875 28.421875 74.21875 
Q 39.75 74.21875 46.484375 68.546875 
Q 53.21875 62.890625 53.21875 53.421875 
Q 53.21875 48.921875 51.53125 44.890625 
Q 49.859375 40.875 45.40625 35.40625 
Q 44.1875 33.984375 37.640625 27.21875 
Q 31.109375 20.453125 19.1875 8.296875 
z
" id="DejaVuSans-50"/>
       </defs>
       <use xlink:href="#DejaVuSans-48"/>
       <use x="63.623047" xlink:href="#DejaVuSans-46"/>
       <use x="95.410156" xlink:href="#DejaVuSans-50"/>
      </g>
     </g>
    </g>
    <g id="xtick_3">
     <g id="line2d_3">
      <g>
       <use style="stroke:#000000;stroke-width:0.8;" x="205.140479" xlink:href="#mcbccce9ef9" y="307.584"/>
      </g>
     </g>
     <g id="text_3">
      <!-- 0.4 -->
      <g transform="translate(197.188917 322.182437)scale(0.1 -0.1)">
       <defs>
        <path d="M 37.796875 64.3125 
L 12.890625 25.390625 
L 37.796875 25.390625 
z
M 35.203125 72.90625 
L 47.609375 72.90625 
L 47.609375 25.390625 
L 58.015625 25.390625 
L 58.015625 17.1875 
L 47.609375 17.1875 
L 47.609375 0 
L 37.796875 0 
L 37.796875 17.1875 
L 4.890625 17.1875 
L 4.890625 26.703125 
z
" id="DejaVuSans-52"/>
       </defs>
       <use xlink:href="#DejaVuSans-48"/>
       <use x="63.623047" xlink:href="#DejaVuSans-46"/>
       <use x="95.410156" xlink:href="#DejaVuSans-52"/>
      </g>
     </g>
    </g>
    <g id="xtick_4">
     <g id="line2d_4">
      <g>
       <use style="stroke:#000000;stroke-width:0.8;" x="270.909228" xlink:href="#mcbccce9ef9" y="307.584"/>
      </g>
     </g>
     <g id="text_4">
      <!-- 0.6 -->
      <g transform="translate(262.957666 322.182437)scale(0.1 -0.1)">
       <defs>
        <path d="M 33.015625 40.375 
Q 26.375 40.375 22.484375 35.828125 
Q 18.609375 31.296875 18.609375 23.390625 
Q 18.609375 15.53125 22.484375 10.953125 
Q 26.375 6.390625 33.015625 6.390625 
Q 39.65625 6.390625 43.53125 10.953125 
Q 47.40625 15.53125 47.40625 23.390625 
Q 47.40625 31.296875 43.53125 35.828125 
Q 39.65625 40.375 33.015625 40.375 
z
M 52.59375 71.296875 
L 52.59375 62.3125 
Q 48.875 64.0625 45.09375 64.984375 
Q 41.3125 65.921875 37.59375 65.921875 
Q 27.828125 65.921875 22.671875 59.328125 
Q 17.53125 52.734375 16.796875 39.40625 
Q 19.671875 43.65625 24.015625 45.921875 
Q 28.375 48.1875 33.59375 48.1875 
Q 44.578125 48.1875 50.953125 41.515625 
Q 57.328125 34.859375 57.328125 23.390625 
Q 57.328125 12.15625 50.6875 5.359375 
Q 44.046875 -1.421875 33.015625 -1.421875 
Q 20.359375 -1.421875 13.671875 8.265625 
Q 6.984375 17.96875 6.984375 36.375 
Q 6.984375 53.65625 15.1875 63.9375 
Q 23.390625 74.21875 37.203125 74.21875 
Q 40.921875 74.21875 44.703125 73.484375 
Q 48.484375 72.75 52.59375 71.296875 
z
" id="DejaVuSans-54"/>
       </defs>
       <use xlink:href="#DejaVuSans-48"/>
       <use x="63.623047" xlink:href="#DejaVuSans-46"/>
       <use x="95.410156" xlink:href="#DejaVuSans-54"/>
      </g>
     </g>
    </g>
    <g id="xtick_5">
     <g id="line2d_5">
      <g>
       <use style="stroke:#000000;stroke-width:0.8;" x="336.677978" xlink:href="#mcbccce9ef9" y="307.584"/>
      </g>
     </g>
     <g id="text_5">
      <!-- 0.8 -->
      <g transform="translate(328.726415 322.182437)scale(0.1 -0.1)">
       <defs>
        <path d="M 31.78125 34.625 
Q 24.75 34.625 20.71875 30.859375 
Q 16.703125 27.09375 16.703125 20.515625 
Q 16.703125 13.921875 20.71875 10.15625 
Q 24.75 6.390625 31.78125 6.390625 
Q 38.8125 6.390625 42.859375 10.171875 
Q 46.921875 13.96875 46.921875 20.515625 
Q 46.921875 27.09375 42.890625 30.859375 
Q 38.875 34.625 31.78125 34.625 
z
M 21.921875 38.8125 
Q 15.578125 40.375 12.03125 44.71875 
Q 8.5 49.078125 8.5 55.328125 
Q 8.5 64.0625 14.71875 69.140625 
Q 20.953125 74.21875 31.78125 74.21875 
Q 42.671875 74.21875 48.875 69.140625 
Q 55.078125 64.0625 55.078125 55.328125 
Q 55.078125 49.078125 51.53125 44.71875 
Q 48 40.375 41.703125 38.8125 
Q 48.828125 37.15625 52.796875 32.3125 
Q 56.78125 27.484375 56.78125 20.515625 
Q 56.78125 9.90625 50.3125 4.234375 
Q 43.84375 -1.421875 31.78125 -1.421875 
Q 19.734375 -1.421875 13.25 4.234375 
Q 6.78125 9.90625 6.78125 20.515625 
Q 6.78125 27.484375 10.78125 32.3125 
Q 14.796875 37.15625 21.921875 38.8125 
z
M 18.3125 54.390625 
Q 18.3125 48.734375 21.84375 45.5625 
Q 25.390625 42.390625 31.78125 42.390625 
Q 38.140625 42.390625 41.71875 45.5625 
Q 45.3125 48.734375 45.3125 54.390625 
Q 45.3125 60.0625 41.71875 63.234375 
Q 38.140625 66.40625 31.78125 66.40625 
Q 25.390625 66.40625 21.84375 63.234375 
Q 18.3125 60.0625 18.3125 54.390625 
z
" id="DejaVuSans-56"/>
       </defs>
       <use xlink:href="#DejaVuSans-48"/>
       <use x="63.623047" xlink:href="#DejaVuSans-46"/>
       <use x="95.410156" xlink:href="#DejaVuSans-56"/>
      </g>
     </g>
    </g>
    <g id="xtick_6">
     <g id="line2d_6">
      <g>
       <use style="stroke:#000000;stroke-width:0.8;" x="402.446727" xlink:href="#mcbccce9ef9" y="307.584"/>
      </g>
     </g>
     <g id="text_6">
      <!-- 1.0 -->
      <g transform="translate(394.495164 322.182437)scale(0.1 -0.1)">
       <defs>
        <path d="M 12.40625 8.296875 
L 28.515625 8.296875 
L 28.515625 63.921875 
L 10.984375 60.40625 
L 10.984375 69.390625 
L 28.421875 72.90625 
L 38.28125 72.90625 
L 38.28125 8.296875 
L 54.390625 8.296875 
L 54.390625 0 
L 12.40625 0 
z
" id="DejaVuSans-49"/>
       </defs>
       <use xlink:href="#DejaVuSans-49"/>
       <use x="63.623047" xlink:href="#DejaVuSans-46"/>
       <use x="95.410156" xlink:href="#DejaVuSans-48"/>
      </g>
     </g>
    </g>
   </g>
   <g id="matplotlib.axis_2">
    <g id="ytick_1">
     <g id="line2d_7">
      <defs>
       <path d="M 0 0 
L -3.5 0 
" id="m99987a1f67" style="stroke:#000000;stroke-width:0.8;"/>
      </defs>
      <g>
       <use style="stroke:#000000;stroke-width:0.8;" x="57.6" xlink:href="#m99987a1f67" y="295.891284"/>
      </g>
     </g>
     <g id="text_7">
      <!-- 0.0 -->
      <g transform="translate(34.696875 299.690502)scale(0.1 -0.1)">
       <use xlink:href="#DejaVuSans-48"/>
       <use x="63.623047" xlink:href="#DejaVuSans-46"/>
       <use x="95.410156" xlink:href="#DejaVuSans-48"/>
      </g>
     </g>
    </g>
    <g id="ytick_2">
     <g id="line2d_8">
      <g>
       <use style="stroke:#000000;stroke-width:0.8;" x="57.6" xlink:href="#m99987a1f67" y="247.407025"/>
      </g>
     </g>
     <g id="text_8">
      <!-- 0.2 -->
      <g transform="translate(34.696875 251.206244)scale(0.1 -0.1)">
       <use xlink:href="#DejaVuSans-48"/>
       <use x="63.623047" xlink:href="#DejaVuSans-46"/>
       <use x="95.410156" xlink:href="#DejaVuSans-50"/>
      </g>
     </g>
    </g>
    <g id="ytick_3">
     <g id="line2d_9">
      <g>
       <use style="stroke:#000000;stroke-width:0.8;" x="57.6" xlink:href="#m99987a1f67" y="198.922767"/>
      </g>
     </g>
     <g id="text_9">
      <!-- 0.4 -->
      <g transform="translate(34.696875 202.721985)scale(0.1 -0.1)">
       <use xlink:href="#DejaVuSans-48"/>
       <use x="63.623047" xlink:href="#DejaVuSans-46"/>
       <use x="95.410156" xlink:href="#DejaVuSans-52"/>
      </g>
     </g>
    </g>
    <g id="ytick_4">
     <g id="line2d_10">
      <g>
       <use style="stroke:#000000;stroke-width:0.8;" x="57.6" xlink:href="#m99987a1f67" y="150.438508"/>
      </g>
     </g>
     <g id="text_10">
      <!-- 0.6 -->
      <g transform="translate(34.696875 154.237727)scale(0.1 -0.1)">
       <use xlink:href="#DejaVuSans-48"/>
       <use x="63.623047" xlink:href="#DejaVuSans-46"/>
       <use x="95.410156" xlink:href="#DejaVuSans-54"/>
      </g>
     </g>
    </g>
    <g id="ytick_5">
     <g id="line2d_11">
      <g>
       <use style="stroke:#000000;stroke-width:0.8;" x="57.6" xlink:href="#m99987a1f67" y="101.95425"/>
      </g>
     </g>
     <g id="text_11">
      <!-- 0.8 -->
      <g transform="translate(34.696875 105.753468)scale(0.1 -0.1)">
       <use xlink:href="#DejaVuSans-48"/>
       <use x="63.623047" xlink:href="#DejaVuSans-46"/>
       <use x="95.410156" xlink:href="#DejaVuSans-56"/>
      </g>
     </g>
    </g>
    <g id="ytick_6">
     <g id="line2d_12">
      <g>
       <use style="stroke:#000000;stroke-width:0.8;" x="57.6" xlink:href="#m99987a1f67" y="53.469991"/>
      </g>
     </g>
     <g id="text_12">
      <!-- 1.0 -->
      <g transform="translate(34.696875 57.26921)scale(0.1 -0.1)">
       <use xlink:href="#DejaVuSans-49"/>
       <use x="63.623047" xlink:href="#DejaVuSans-46"/>
       <use x="95.410156" xlink:href="#DejaVuSans-48"/>
      </g>
     </g>
    </g>
   </g>
   <g id="patch_3">
    <path d="M 57.6 307.584 
L 57.6 41.472 
" style="fill:none;stroke:#000000;stroke-linecap:square;stroke-linejoin:miter;stroke-width:0.8;"/>
   </g>
   <g id="patch_4">
    <path d="M 414.72 307.584 
L 414.72 41.472 
" style="fill:none;stroke:#000000;stroke-linecap:square;stroke-linejoin:miter;stroke-width:0.8;"/>
   </g>
   <g id="patch_5">
    <path d="M 57.6 307.584 
L 414.72 307.584 
" style="fill:none;stroke:#000000;stroke-linecap:square;stroke-linejoin:miter;stroke-width:0.8;"/>
   </g>
   <g id="patch_6">
    <path d="M 57.6 41.472 
L 414.72 41.472 
" style="fill:none;stroke:#000000;stroke-linecap:square;stroke-linejoin:miter;stroke-width:0.8;"/>
   </g>
  </g>
 </g>
 <defs>
  <clipPath id="p19a479c395">
   <rect height="266.112" width="357.12" x="57.6" y="41.472"/>
  </clipPath>
 </defs>
</svg>
